<svg width="257" height="88" viewBox="0 0 257 88" fill="none" xmlns="http://www.w3.org/2000/svg">
<rect x="0.5" y="0.5" width="256" height="87" rx="11.5" fill="#0F0F0F"/>
<rect x="0.5" y="0.5" width="256" height="87" rx="11.5" stroke="#1F1F1F"/>
<rect x="16.5" y="16.5" width="55" height="55" rx="7.5" fill="#1A1A1A"/>
<rect x="16.5" y="16.5" width="55" height="55" rx="7.5" stroke="#1F1F1F"/>
<path d="M52.75 44L35.25 44M35.25 44L43.125 51.875M35.25 44L43.125 36.125" stroke="white" stroke-width="2" stroke-linecap="round" stroke-linejoin="round"/>
<rect x="88" y="42" width="23" height="4" rx="2" fill="#E60000"/>
<rect x="114" y="42" width="16.3333" height="4" rx="2" fill="#333333"/>
<rect x="133.333" y="42" width="16.3333" height="4" rx="2" fill="#333333"/>
<rect x="152.667" y="42" width="16.3333" height="4" rx="2" fill="#333333"/>
<rect x="185.5" y="16.5" width="55" height="55" rx="7.5" fill="#1A1A1A"/>
<rect x="185.5" y="16.5" width="55" height="55" rx="7.5" stroke="#1F1F1F"/>
<path d="M214.75 35.25L223.5 44M223.5 44L214.75 52.75M223.5 44H202.5" stroke="white" stroke-width="2" stroke-linecap="round" stroke-linejoin="round"/>
</svg>
